<svg id="FIBDEC_vector" data-name="FIBDEC vector" xmlns="http://www.w3.org/2000/svg" viewBox="0 0 504.08394 194.87347"><defs><style>.cls-1,.cls-12,.cls-8,.cls-9{opacity:0.78;}.cls-2{fill:#69c;}.cls-3{fill:#1c3664;}.cls-4{fill:#063b58;}.cls-11,.cls-12,.cls-5,.cls-6,.cls-7,.cls-8,.cls-9{fill:none;}.cls-5,.cls-6,.cls-7,.cls-8{stroke:#1c3664;}.cls-12,.cls-5,.cls-6,.cls-7,.cls-8,.cls-9{stroke-miterlimit:10;}.cls-5{stroke-width:0.25px;}.cls-7{stroke-width:0.25743px;}.cls-8,.cls-9{stroke-width:1.5px;}.cls-12,.cls-9{stroke:#231f20;}.cls-10{fill:#231f20;}.cls-12{stroke-width:0.5px;}</style></defs><g class="cls-1"><path class="cls-2" d="M374.4152,213.049c-.03-.22-.07-.43-.12-.64-.03-.18-.07-.36-.11-.53a.22018.22018,0,0,0-.01-.08c-.04-.18-.08-.36-.12-.53-.01-.03-.01-.06-.02-.08l.06-.64c.04.17.08.34.12.52.05.19.09.38.13.57v.04c.01.03.01.05.02.08.03.14.06.3.09.45.01.05.02.11.03.16a3.70132,3.70132,0,0,1,.09.48c.01.04.02.09.03.14s.02.11.03.16a2.23058,2.23058,0,0,1,.04.23.06613.06613,0,0,1,.01.06.50792.50792,0,0,1,.03.17.03674.03674,0,0,0,.01.03v.07a.03674.03674,0,0,1,.01.03.06012.06012,0,0,0,.01.04.06012.06012,0,0,0,.01.04c.01.01.02.03.01.04v.04c.02.18.05.35.08.54v.02c.04.22.07.44.1.67.05.3.1.62.14.93.02.17.04.34.07.51.01.11.02.22.04.34q.06.465.12.96l.09.78c.07.6.14,1.2.2,1.82.03.3.06.61.09.92.04.29.06.59.09.88l.09.99c.01.17.03.34.05.51.03.4.06.79.1,1.19.13,1.58.24,3.15.33,4.64l.06.93a.8602.8602,0,0,0,.01.16q.03.57.06,1.11v.12c.01.36.03.7.05,1.04.01.32.03.63.04.93,0,.1,0,.21.01.31.03.78.04,1.5.05,2.12h-.16c-.01-.57-.02-1.22-.05-1.92-.01-.1-.01-.21-.01-.31-.01-.3-.03-.61-.04-.93-.02-.34-.04-.68-.05-1.04v-.12q-.03-.54-.06-1.11a.8602.8602,0,0,1-.01-.16l-.06-.93c-.09-1.49-.2-3.06-.33-4.64-.02-.25-.05-.51-.07-.76-.01-.14-.02-.29-.03-.43-.02-.17-.04-.34-.05-.51l-.09-.99c-.03-.29-.05-.59-.09-.88-.03-.31-.06-.62-.09-.92-.06-.62-.13-1.22-.2-1.82l-.09-.78q-.06-.495-.12-.96c-.02-.15-.04-.3-.06-.44s-.04-.27-.05-.41c-.04-.31-.09-.63-.14-.93-.03-.23-.06-.45-.1-.67v-.02c-.03-.19-.06-.36-.08-.54.02.1.04.19.06.28a1.801,1.801,0,0,0-.06-.32c.01-.01,0-.03-.01-.04a.01875.01875,0,0,0,0-.03l-.01-.01a.14653.14653,0,0,0-.02-.11v-.01a.01875.01875,0,0,0,0-.03c0-.01,0-.01-.01-.02a.50792.50792,0,0,0-.03-.17.06613.06613,0,0,0-.01-.06,2.23058,2.23058,0,0,0-.04-.23c-.01-.05-.02-.11-.03-.16S374.4252,213.089,374.4152,213.049Z" transform="translate(-60.9102 -116.16695)"/><path class="cls-2" d="M371.8452,236.319l2.19-25.13c.01.02.01.05.02.08.04.17.08.35.12.53a.22018.22018,0,0,1,.01.08c.04.17.08.35.11.53.05.21.09.42.12.64.01.04.02.09.03.14s.02.11.03.16a2.23058,2.23058,0,0,1,.04.23.06613.06613,0,0,1,.01.06.50792.50792,0,0,1,.03.17c.01.01.01.01.01.02a.01875.01875,0,0,1,0,.03v.01a.14653.14653,0,0,1,.02.11l.01.01a.01875.01875,0,0,1,0,.03c.01.01.02.03.01.04a1.801,1.801,0,0,1,.06.32c-.02-.09-.04-.18-.06-.28.02.18.05.35.08.54v.02c.04.22.07.44.1.67.05.3.1.62.14.93.01.14.03.27.05.41s.04.29.06.44q.06.465.12.96l.09.78c.07.6.14,1.2.2,1.82.03.3.06.61.09.92.04.29.06.59.09.88l.09.99c.01.17.03.34.05.51.01.14.02.29.03.43.02.25.05.51.07.76.13,1.58.24,3.15.33,4.64l.06.93a.8602.8602,0,0,0,.01.16q.03.57.06,1.11v.12c.01.36.03.7.05,1.04.01.32.03.63.04.93,0,.1,0,.21.01.31.03.7.04,1.35.05,1.92Z" transform="translate(-60.9102 -116.16695)"/><path class="cls-2" d="M376.6452,237.209a72.94619,72.94619,0,0,1-9.84,36.71l-.27-.16v-.01l5.31-37.43h4.79C376.6452,236.609,376.6452,236.909,376.6452,237.209Z" transform="translate(-60.9102 -116.16695)"/><path class="cls-3" d="M366.8052,273.919a73.51648,73.51648,0,0,1-17.68,20.57l-.15.12h-.01l-8.17-5.08-.57-.35,1.21-.7.01-.01,24.92-14.51-.03-.08v-.01l.19-.11h.01Z" transform="translate(-60.9102 -116.16695)"/><polygon class="cls-2" points="263.705 163.102 284.885 132.052 292.725 120.542 305.425 157.702 280.705 172.102 280.695 172.102 280.695 172.112 280.675 172.122 279.465 172.822 279.415 172.852 279.405 172.852 263.705 163.102"/><polygon class="cls-3" points="293.375 119.762 293.215 119.962 293.365 119.762 293.375 119.762"/><polygon class="cls-3" points="293.215 119.962 293.075 120.152 293.065 120.152 293.215 119.962"/><path class="cls-3" d="M354.2852,235.919l-.01.01-.15.2-.15.19h-.17l3.68-48.57,1.73-14.1c.24.39.49.8.72,1.2.18.28.34.57.51.86.62,1.03,1.21,2.08,1.78,3.14.17.32.35.64.52.96.36.66.71,1.33,1.05,2,.38.74.76,1.49,1.12,2.24l.06.12c.28.58.56,1.17.83,1.76q.36.765.69,1.53.36.78.69,1.56c.33.76.65,1.53.96,2.3.16.39.32.78.47,1.18.16.4.31.8.46,1.19.31.79.6,1.59.88,2.39.27.75.53,1.51.79,2.28.42,1.25.82,2.52,1.19,3.79.1.33.2.67.3,1.01.14.48.28.96.4,1.44.14.48.26.96.38,1.44.2.72.38,1.45.55,2.17.15.62.3,1.24.43,1.86.04.15.07.29.1.44v.01l-.01.01-.16.2-12.82,16.44-.01.02-5.05,6.47v.01Z" transform="translate(-60.9102 -116.16695)"/><polygon class="cls-2" points="292.875 120.322 292.885 120.352 292.855 120.352 292.875 120.322"/><polygon class="cls-3" points="292.825 120.352 292.725 120.432 292.725 120.352 292.825 120.352"/><path class="cls-2" d="M340.7952,289.529l8.17,5.08a72.93571,72.93571,0,0,1-39.95,15.77h-5.38l.44-.26,36-20.95.08.05.07-.04Z" transform="translate(-60.9102 -116.16695)"/><polygon class="cls-2" points="305.455 157.792 280.535 172.302 280.525 172.312 279.315 173.012 279.235 172.962 279.405 172.852 279.415 172.852 279.465 172.822 280.675 172.122 280.695 172.112 280.705 172.102 305.425 157.712 305.455 157.792"/><polygon class="cls-3" points="263.705 163.102 279.405 172.852 279.235 172.962 279.165 173.002 263.555 163.312 263.705 163.102"/><polygon class="cls-2" points="279.315 173.012 279.245 173.052 279.165 173.002 279.235 172.962 279.315 173.012"/><polygon class="cls-3" points="282.875 127.342 263.305 141.082 271.945 120.152 292.885 120.152 292.875 120.312 292.875 120.322 292.825 120.352 292.725 120.352 292.725 120.432 282.875 127.342"/><path class="cls-2" d="M317.3452,274.749l7.23,4.5Z" transform="translate(-60.9102 -116.16695)"/><polygon class="cls-2" points="284.015 54.312 237.145 43.932 250.245 32.622 298.235 57.442 298.255 57.462 284.015 54.312"/><polygon class="cls-3" points="271.935 120.152 242.885 120.152 242.125 119.372 256.095 103.912 290.595 65.732 298.305 57.482 293.355 68.272 274.055 115.032 271.945 120.152 271.935 120.152"/><path class="cls-3" d="M303.5052,287.919l.24-21.35.07.04,9.9,6.15,3.54,2.19-.01.04-.07-.04-.07.18-13.76,35.01a.21521.21521,0,0,1-.08,0Z" transform="translate(-60.9102 -116.16695)"/><polygon class="cls-2" points="242.935 139.882 242.905 142.272 242.905 139.912 242.905 139.882 242.935 139.882"/><polygon class="cls-2" points="242.835 150.362 242.835 150.142 242.835 149.572 242.845 148.992 242.895 148.992 242.905 148.992 242.905 143.702 242.945 139.882 242.965 139.882 252.735 140.462 263.295 141.082 263.305 141.082 256.435 158.582 256.425 158.582 256.355 158.762 256.345 158.782 252.805 156.592 242.905 150.442 242.835 150.402 242.835 150.362"/><polygon class="cls-3" points="242.725 194.212 242.345 194.432 242.495 194.212 242.655 193.972 242.665 193.972 263.555 163.312 279.165 173.002 243.165 193.952 242.725 194.212"/><path class="cls-3" d="M317.7952,139.479l-16.37-13.51.34-.87c.36.14.72.29,1.08.44.77.32,1.55.65,2.31.99.59.25,1.17.51,1.75.78a.925.925,0,0,1,.1.05c.46.21.92.43,1.38.65.49.23.97.46,1.46.7q4.395,2.145,8.58,4.66c.27.16.54.33.81.49,1.72,1.04,3.42,2.13,5.08,3.27.41.27.81.55,1.22.84.22.14.43.29.65.46.44.3.87.61,1.3.93.53.38,1.06.77,1.58,1.17,1.13.84,2.25,1.72,3.36,2.62.39.31.77.63,1.15.95,1,.82,1.98,1.66,2.96,2.53.7.63,1.4,1.26,2.09,1.9q1.56,1.455,3.08,2.97c.31.31.62.62.93.94.17.17.34.34.5.52.37.37.73.75,1.08,1.13.15.14.29.3.43.46.4.43.8.85,1.19,1.29.83.9,1.64,1.83,2.44,2.77.31.35.6.71.9,1.07q1.725,2.055,3.34,4.2a.951.951,0,0,1,.15.2c.54.7,1.07,1.42,1.59,2.14.56.78,1.11,1.56,1.65,2.35.09.12.18.24.26.37.49.73.97,1.46,1.45,2.19.27.41.54.83.8,1.25.26.41.52.83.78,1.25Z" transform="translate(-60.9102 -116.16695)"/><polygon class="cls-2" points="240.885 101.532 239.055 75.192 285.355 61.572 297.605 57.972 290.595 65.732 256.095 103.912 242.125 119.372 240.885 101.532"/><path class="cls-2" d="M301.1052,262.429a17.70382,17.70382,0,0,1-1.6,1.24h-.01l-.1-.06-.37-.23-.01-.01h-.01l-1.68-1.05-.03-.01-3.08-1.92v-.11l9.44-4.84c0,.2-.01.4-.02.6,0,.04-.01.09-.01.13-.03.36-.02.71-.03,1.06,0,.03-.01.07-.01.1v.02a18.58473,18.58473,0,0,1-.78,3.17,7.47087,7.47087,0,0,1-1.22,1.46,4.14586,4.14586,0,0,1-.43.4A.22524.22524,0,0,0,301.1052,262.429Z" transform="translate(-60.9102 -116.16695)"/><polygon class="cls-3" points="233.065 144.242 233.035 144.262 233.025 144.262 233.065 144.242"/><path class="cls-2" d="M292.2252,236.319h11.56l2.66,2.72,2.6,2.67.02.02.74.76,2.88,2.95,11.51,11.8-13.67-7.67v-.01l-9.81-5.5a18.906,18.906,0,0,0-10.41-7.74Z" transform="translate(-60.9102 -116.16695)"/><polygon class="cls-3" points="233.115 143.862 226.525 139.772 225.145 139.152 230.835 139.152 233.115 139.152 233.115 143.862"/><path class="cls-3" d="M291.6352,265.269h-.01a.89291.89291,0,0,1-.2-.06l2.61-.05v-4.66l.18.11v-.21l3.08,1.91.03.01,1.68,1.05h.01l.01.01.37.23.1.06c-.05.04-.1.08-.16.12-.02.01-.04.03-.06.04a9.59084,9.59084,0,0,1-3.09,1.39c-.01,0-.01.01-.02.01h-.02l-4.49.04Z" transform="translate(-60.9102 -116.16695)"/><polygon class="cls-3" points="239.055 75.192 240.885 101.532 242.125 119.372 235.905 101.842 223.625 67.222 239.055 75.192"/><path class="cls-3" d="M301.5852,255.319l-7.85-9.67-7.57-9.33h.76l13.79,7.74a18.77533,18.77533,0,0,1,3.1,10.37c0,.3-.01.6-.02.89Z" transform="translate(-60.9102 -116.16695)"/><path class="cls-2" d="M311.1552,148.789l-54.12-31.05v-.17a195.33773,195.33773,0,0,1,26.44,1.83c.82.19,1.64.38,2.46.58.01,0,.02.01.04.01q.915.225,1.83.48a2.29115,2.29115,0,0,1,.28.07c.38.1.75.2,1.13.31a.20158.20158,0,0,1,.11.03c.53.14,1.06.29,1.58.45.42.12.83.24,1.25.38.5.15,1,.3,1.5.47.51.15,1.01.32,1.51.49.27.09.55.18.82.28a2.413,2.413,0,0,1,.25.08c.5.17.99.35,1.48.53.82.29,1.64.59,2.46.92.31.11.61.23.92.36.22.08.45.17.67.26l-.34.87Z" transform="translate(-60.9102 -116.16695)"/><path class="cls-3" d="M300.7152,244.059l-13.79-7.74-1.04-.65-.33-.12a18.57429,18.57429,0,0,1,4.75.77A18.906,18.906,0,0,1,300.7152,244.059Z" transform="translate(-60.9102 -116.16695)"/><path class="cls-2" d="M284.4352,255.319h1.47l.18.12h.01l1.05.67.06.04h.01l.05.03,4.89,3.12.05.04,1.72,1.09-5.5,3.03-.33.18h-.01c-.09-.07-.16-.13-.25-.2l-.03-.03-.04-.42-3.24-7.59Z" transform="translate(-60.9102 -116.16695)"/><path class="cls-2" d="M285.6352,235.659l.31.38Z" transform="translate(-60.9102 -116.16695)"/><polygon class="cls-3" points="225.035 119.872 224.725 119.492 224.665 119.412 224.655 119.402 224.645 119.382 226.015 120.152 225.255 120.152 225.035 119.872"/><path class="cls-2" d="M285.5752,235.579l.06.08Z" transform="translate(-60.9102 -116.16695)"/><polygon class="cls-2" points="224.655 119.402 224.665 119.412 224.655 119.412 224.655 119.402"/><polygon class="cls-2" points="240.675 139.152 233.125 139.152 233.115 139.152 230.835 139.152 228.385 131.382 224.655 119.412 224.665 119.412 224.725 119.492 225.035 119.872 225.255 120.152 232.825 129.482 240.675 139.152"/><polygon class="cls-3" points="224.645 119.382 224.655 119.402 224.635 119.392 224.635 119.382 224.645 119.382"/><polygon class="cls-3" points="223.875 120.152 224.625 119.402 224.625 119.412 224.565 120.152 223.875 120.152"/><polygon class="cls-2" points="222.185 69.502 222.205 69.462 223.625 67.222 235.905 101.842 242.125 119.372 242.105 119.342 232.335 102.412 231.525 101.022 231.515 101.002 226.115 91.652 224.215 88.362 222.445 85.292 217.565 76.832 222.185 69.502"/><polygon class="cls-3" points="223.875 120.152 218.045 125.952 223.525 120.472 223.845 120.152 223.875 120.152"/><path class="cls-3" d="M284.4352,265.319v-6.81a10.13431,10.13431,0,0,0,2.79,4.42c.11.09.23.19.35.29a1.99964,1.99964,0,0,0,.22.19l.03.37h.01l.25-.14h.01c.13.1.27.2.41.29a9.33552,9.33552,0,0,0,2.9,1.28l-3.45.07-2.26.04h-1.26Z" transform="translate(-60.9102 -116.16695)"/><polygon class="cls-3" points="217.555 76.832 222.445 85.292 224.215 88.362 226.115 91.652 231.515 101.002 231.525 101.022 232.325 102.412 239.375 114.632 232.305 102.422 231.535 101.102 231.525 101.082 224.115 88.292 224.105 88.272 209.495 63.052 206.925 58.612 219.695 65.192 219.705 65.202 223.615 67.222 222.205 69.462 222.185 69.502 217.555 76.832"/><polygon class="cls-3" points="206.925 58.602 225.445 49.612 237.145 43.932 284.015 54.312 298.275 57.472 298.285 57.482 280.105 58.092 206.925 58.602"/><path class="cls-3" d="M278.9552,242.119l5.83-5.8h.69l-1.04,13.26-.01.13v-.13l-.33,4.22-.01.05c-.01.08-.02.15-.03.23l-10.47-6.49.02-.02-.06-.04,4.84-4.84Z" transform="translate(-60.9102 -116.16695)"/><path class="cls-3" d="M278.7652,224.119l-21.77-32.83-.01-.04,30.93,28.73,15.1,15.53.02.03.76.78h-11.57a28.95651,28.95651,0,0,0-6.69-.78Z" transform="translate(-60.9102 -116.16695)"/><polygon class="cls-2" points="198.305 149.352 208.665 149.272 223.525 149.152 224.125 149.152 224.305 149.162 223.525 149.172 224.545 149.162 224.555 149.162 224.785 149.162 224.795 149.162 227.625 156.292 211.605 152.502 198.305 149.352"/><polygon class="cls-2" points="196.025 64.112 196.045 56.332 204.565 58.112 206.915 58.602 206.915 58.612 196.015 74.682 196.025 64.112"/><path class="cls-2" d="M256.9952,191.289l21.77,32.83,6.77,11.42v.01h-.34a2.43687,2.43687,0,0,0-.27-.01,2.09021,2.09021,0,0,0-.25.01l-.93-.01-.07.01h-.17l-1.15.17-.1.01a20.47828,20.47828,0,0,0-3.33.49c-.14.03-.27.06-.41.1h-13.41Z" transform="translate(-60.9102 -116.16695)"/><polygon class="cls-3" points="225.305 177.912 196.755 149.362 198.295 149.352 198.305 149.352 211.605 152.502 227.625 156.292 227.805 156.772 234.855 176.092 241.375 193.982 225.305 177.912"/><polygon class="cls-3" points="196.055 49.922 205.565 57.522 206.915 58.602 205.155 57.762 196.045 53.442 196.055 49.922"/><path class="cls-2" d="M256.8152,265.539l.84-.01h.01l28.55,28.55,16.07,16.07v.01a46.37871,46.37871,0,0,1-16.14-2.89c-.94-.36-1.86-.74-2.77-1.14-1.22-.55-2.41-1.15-3.57-1.79-.87-.49-1.71-1-2.54-1.53a46.31773,46.31773,0,0,1-12.18-11.44c-.19-.26-.39-.53-.58-.8a46.06253,46.06253,0,0,1-7.7-18.37v-1.76Z" transform="translate(-60.9102 -116.16695)"/><polygon class="cls-3" points="237.145 43.932 196.125 1.702 196.125 1.572 250.245 32.622 237.145 43.932"/><polygon class="cls-2" points="196.145 74.822 196.055 74.962 196.015 74.752 196.015 74.702 196.145 74.822"/><path class="cls-2" d="M256.8552,237.189l.02-11.01.14.12.02,10.02h21.48a29.01506,29.01506,0,0,0-12.33,6.51l.02.01c-.03.03-.07.06-.1.09h-.01l-3.73-2.32-5.42-3.36Z" transform="translate(-60.9102 -116.16695)"/><polygon class="cls-2" points="196.125 2.902 206.605 56.932 206.925 58.602 206.915 58.602 205.565 57.522 196.055 49.922 196.055 49.912 196.125 2.902"/><polygon class="cls-3" points="196.075 75.082 196.085 75.122 196.015 75.022 196.075 75.082"/><polygon class="cls-2" points="196.005 74.692 196.015 74.692 196.015 74.702 196.015 74.752 196.005 74.692"/><polygon class="cls-2" points="196.005 72.052 196.015 74.682 196.005 74.692 196.005 72.052"/><path class="cls-3" d="M266.0452,255.029l-9.15,9.15.01-5.06c.06-.33.14-.66.21-.98q.165-.69.36-1.38c.11-.39.22-.77.35-1.15.14-.42.28-.83.44-1.24.15-.4.31-.8.49-1.19.17-.41.36-.81.56-1.21a3.01331,3.01331,0,0,1,.16-.31q.21-.435.45-.87a3.60745,3.60745,0,0,1,.22-.39q.315-.57.66-1.11.405-.645.84-1.26c.23-.34.48-.67.73-1,.22-.28.44-.56.67-.83q.255-.315.54-.63c.25-.3.52-.59.79-.88l.81-.81c.28-.27.56-.54.85-.79.05-.05.1-.09.15-.14l2.69,1.67,4.67,2.91-.02.02Z" transform="translate(-60.9102 -116.16695)"/><path class="cls-2" d="M256.8952,264.179v.1l9.23-9.23,7.46-7.46,10.47,6.49v.01a1.49189,1.49189,0,0,0-.02.21.52829.52829,0,0,0-.01.13.01385.01385,0,0,0,0,.02v.04h-.01v.03c-.01,0-.01,0,0,.01a.01385.01385,0,0,0,0,.02v.06a.17018.17018,0,0,0-.01.07v.02c0,.03-.01.07-.01.1-.01.12-.01.25-.01.38v.07h-.01v.07l-16.74,5.74-10.42,3.57v-.37Z" transform="translate(-60.9102 -116.16695)"/><polygon class="cls-2" points="187.135 88.382 193.205 66.552 195.965 56.622 195.985 64.132 195.985 64.142 195.975 64.142 196.005 74.692 196.015 75.022 187.135 88.382"/><polygon class="cls-2" points="174.825 92.312 195.955 110.012 195.935 121.022 174.825 92.312"/><polygon class="cls-3" points="184.895 84.662 184.715 84.362 184.705 84.342 181.815 79.522 165.385 52.182 163.835 49.592 195.965 56.312 195.965 56.612 195.965 56.622 193.205 66.552 187.135 88.382 186.645 87.572 186.635 87.562 186.445 87.242 185.275 85.292 184.895 84.662"/><polygon class="cls-3" points="195.955 49.842 195.965 53.402 167.345 39.842 170.945 29.862 195.955 49.842"/><polygon class="cls-2" points="184.715 84.362 184.895 84.662 185.275 85.292 186.445 87.242 186.635 87.562 186.645 87.572 187.125 88.382 178.585 82.082 170.945 76.312 152.925 61.422 152.895 61.402 152.895 61.392 159.625 54.132 163.405 50.052 163.825 49.602 165.385 52.182 181.805 79.522 184.705 84.342 184.715 84.362"/><path class="cls-2" d="M224.3152,166.219l.42-.45Z" transform="translate(-60.9102 -116.16695)"/><path class="cls-2" d="M220.5352,170.299l3.78-4.08Z" transform="translate(-60.9102 -116.16695)"/><polygon class="cls-2" points="152.885 63.592 156.635 79.312 113.655 49.592 152.885 63.592"/><polygon class="cls-3" points="154.305 81.852 146.655 89.962 140.165 69.902 154.305 81.852"/><polygon class="cls-3" points="177.045 87.512 195.955 110.012 174.825 92.312 174.795 92.292 159.105 79.152 152.895 61.402 152.925 61.422 177.045 87.512"/><polygon class="cls-2" points="159.625 54.132 152.895 61.392 152.885 61.392 159.625 54.132"/><polygon class="cls-2" points="134.495 94.352 143.145 107.802 95.705 103.002 134.495 94.352"/><polygon class="cls-3" points="117.115 67.122 129.835 73.822 124.695 76.792 114.765 70.622 117.115 67.122"/><polygon class="cls-2" points="101.715 90.052 114.765 70.622 124.695 76.792 101.715 90.052"/><polygon class="cls-3" points="112.195 51.652 114.535 61.212 104.325 51.652 112.195 51.652"/><polygon class="cls-3" points="107.245 74.112 102.295 62.882 105.595 64.932 105.615 64.942 109.435 68.872 107.245 74.112"/><polygon class="cls-3" points="96.125 74.112 99.525 81.852 96.125 89.592 96.125 74.112"/><path class="cls-2" d="M179.2252,145.159l-44.21,15.73-.08-.1a192.25318,192.25318,0,0,1,96.55-41.58,194.86688,194.86688,0,0,1,25.26-1.64l-77.51,27.58Z" transform="translate(-60.9102 -116.16695)"/><polygon class="cls-3" points="170.945 29.862 107.355 39.622 74.105 44.722 118.315 28.992 118.325 28.982 195.835 1.402 170.945 29.862"/><polygon class="cls-4" points="81.035 62.252 83.025 80.442 83.025 80.462 83.625 85.972 81.805 84.102 81.805 84.092 70.215 72.162 65.855 67.682 81.035 62.252"/><polygon class="cls-2" points="74.105 44.722 107.355 39.622 170.945 29.862 167.345 39.842 163.835 49.592 163.825 49.592 162.945 49.542 153.535 49.032 101.775 46.222 74.105 44.722"/><polygon class="cls-3" points="63.895 69.512 68.205 74.112 56.805 71.122 63.295 68.872 63.895 69.512"/><polygon class="cls-2" points="56.805 79.152 64.145 92.062 52.125 109.542 56.805 79.152"/><polygon class="cls-2" points="75.545 47.722 101.715 51.292 56.515 68.182 75.545 47.722"/><polygon class="cls-3" points="58.135 118.262 30.035 156.712 36.045 129.822 58.135 118.262"/><polygon class="cls-3" points="55.385 56.072 46.375 57.152 51.655 51.532 55.385 56.072"/><polygon class="cls-3" points="46.525 93.892 46.525 101.922 44.825 96.842 46.525 93.892"/><polygon class="cls-2" points="33.385 101.922 36.395 90.152 46.375 90.152 33.385 101.922"/><polygon class="cls-2" points="24.125 130.052 24.125 113.192 30.035 118.622 24.125 130.052"/><polygon class="cls-3" points="9.575 95.862 17.125 93.892 17.125 97.862 9.575 95.862"/><polygon class="cls-3" points="11.825 156.952 12.815 160.602 9.915 161.212 11.825 156.952"/><polygon class="cls-2" points="7.635 130.052 0.125 142.742 0.125 134.382 7.635 130.052"/><line class="cls-5" x1="242.115" y1="119.37206" x2="242.105" y2="119.34206"/><polyline class="cls-5" points="231.535 101.102 232.295 102.422 239.375 114.632"/><line class="cls-5" x1="224.115" y1="88.29206" x2="231.525" y2="101.08206"/><line class="cls-5" x1="209.495" y1="63.05206" x2="224.105" y2="88.27206"/><line class="cls-5" x1="206.915" y1="58.60206" x2="206.915" y2="58.61206"/><polyline class="cls-5" points="219.705 65.202 219.695 65.192 206.925 58.612"/><polyline class="cls-5" points="222.445 85.292 217.555 76.832 222.185 69.502 222.205 69.462 223.615 67.222"/><polyline class="cls-5" points="231.515 101.002 226.115 91.652 224.215 88.362"/><polyline class="cls-5" points="239.375 114.632 232.325 102.412 231.525 101.022"/><line class="cls-5" x1="263.295" y1="141.07206" x2="271.935" y2="120.15206"/><polyline class="cls-5" points="248.155 125.562 248.895 126.322 251.775 129.272 263.285 141.072"/><polyline class="cls-5" points="242.875 120.152 245.535 122.872 248.135 125.542"/><path class="cls-5" d="M256.8952,180.309h-.01l.03,10.55v-2.64l.01-7.94c-.01.01-.02.02-.03.02" transform="translate(-60.9102 -116.16695)"/><line class="cls-5" x1="195.955" y1="110.01206" x2="174.825" y2="92.31206"/><line class="cls-5" x1="195.945" y1="121.02206" x2="195.935" y2="121.02206"/><line class="cls-5" x1="196.035" y1="121.08206" x2="195.945" y2="121.03206"/><polyline class="cls-5" points="195.895 148.502 195.895 148.462 195.895 148.102 195.895 148.092 195.905 142.932 195.905 139.352 195.935 121.252 195.945 121.252 195.975 121.272 201.355 124.612 205.035 126.902 205.045 126.902"/><line class="cls-5" x1="195.905" y1="148.52206" x2="195.895" y2="148.51206"/><line class="cls-5" x1="196.255" y1="148.87206" x2="195.995" y2="148.61206"/><path class="cls-5" d="M264.5052,290.569a45.93622,45.93622,0,0,1-7.71-18.37v-1.76l.01-4.9" transform="translate(-60.9102 -116.16695)"/><path class="cls-5" d="M268.8952,295.899a44.54327,44.54327,0,0,1-3.81-4.53" transform="translate(-60.9102 -116.16695)"/><path class="cls-5" d="M279.8052,304.339c-.87-.48-1.71-.99-2.54-1.53" transform="translate(-60.9102 -116.16695)"/><path class="cls-5" d="M286.1452,307.269c-.94-.35-1.86-.73-2.77-1.14" transform="translate(-60.9102 -116.16695)"/><path class="cls-6" d="M317.2452,274.989l-13.82,35.15h-.08a.21521.21521,0,0,1-.08,0" transform="translate(-60.9102 -116.16695)"/><polyline class="cls-5" points="263.665 163.082 256.435 158.582 256.425 158.582 256.355 158.762 256.345 158.782 256.335 158.822"/><line class="cls-5" x1="280.675" y1="172.12206" x2="279.465" y2="172.82206"/><polyline class="cls-5" points="305.425 157.702 280.705 172.102 280.695 172.102 280.695 172.112"/><polyline class="cls-5" points="292.895 120.352 294.095 123.872 305.615 157.592"/><line class="cls-5" x1="292.875" y1="120.32206" x2="292.885" y2="120.35206"/><line class="cls-5" x1="292.885" y1="120.15206" x2="292.875" y2="120.31206"/><line class="cls-5" x1="293.375" y1="119.76206" x2="293.365" y2="119.76206"/><line class="cls-6" x1="293.375" y1="119.75206" x2="293.375" y2="119.76206"/><line class="cls-5" x1="300.185" y1="111.02206" x2="295.135" y2="117.49206"/><line class="cls-6" x1="313.015" y1="94.56206" x2="300.195" y2="111.00206"/><path class="cls-5" d="M374.2152,211.069c-.04-.18-.08-.35-.12-.52,0-.01-.01-.01-.01-.02" transform="translate(-60.9102 -116.16695)"/><path class="cls-5" d="M374.7252,213.639a.03674.03674,0,0,1-.01-.03.50792.50792,0,0,0-.03-.17.06613.06613,0,0,0-.01-.06,2.23058,2.23058,0,0,0-.04-.23c-.01-.05-.02-.11-.03-.16s-.02-.1-.03-.14a3.70132,3.70132,0,0,0-.09-.48c-.01-.05-.02-.11-.03-.16-.03-.15-.06-.31-.09-.45-.01-.03-.01-.05-.02-.08v-.04" transform="translate(-60.9102 -116.16695)"/><path class="cls-5" d="M366.8052,273.919a72.94619,72.94619,0,0,0,9.84-36.71c0-.3,0-.6-.01-.89-.01-.62-.02-1.34-.05-2.12-.01-.1-.01-.21-.01-.31-.01-.3-.03-.61-.04-.93-.02-.34-.04-.68-.05-1.04v-.12q-.03-.54-.06-1.11a.8602.8602,0,0,1-.01-.16l-.06-.93c-.09-1.49-.2-3.06-.33-4.64-.04-.4-.07-.79-.1-1.19-.02-.17-.04-.34-.05-.51l-.09-.99c-.03-.29-.05-.59-.09-.88-.03-.31-.06-.62-.09-.92-.06-.62-.13-1.22-.2-1.82l-.09-.78q-.06-.495-.12-.96c-.02-.12-.03-.23-.04-.34-.03-.17-.05-.34-.07-.51-.04-.31-.09-.63-.14-.93-.03-.23-.06-.45-.1-.67v-.02c-.03-.19-.06-.36-.08-.54v-.04c.01-.01,0-.03-.01-.04a.06012.06012,0,0,1-.01-.04.06012.06012,0,0,1-.01-.04.03674.03674,0,0,0-.01-.03v-.05" transform="translate(-60.9102 -116.16695)"/><path class="cls-5" d="M303.5852,257.349a18.58473,18.58473,0,0,1-.78,3.17" transform="translate(-60.9102 -116.16695)"/><line class="cls-5" x1="223.065" y1="139.09206" x2="223.075" y2="139.09206"/><polyline class="cls-5" points="242.905 142.272 242.935 139.882 242.945 139.152"/><polyline class="cls-5" points="242.895 139.882 242.895 140.692 242.895 143.702 242.905 142.752"/><path class="cls-5" d="M302.8252,260.479a5.38209,5.38209,0,0,0,.37-.71,5.72019,5.72019,0,0,0,.39-2.35v-.09c0-.03.01-.07.01-.1.06-.39.1-.78.14-1.18" transform="translate(-60.9102 -116.16695)"/><path class="cls-5" d="M301.5852,261.979a7.47087,7.47087,0,0,0,1.22-1.46.00979.00979,0,0,1,.01-.01" transform="translate(-60.9102 -116.16695)"/><path class="cls-5" d="M301.1052,262.429a.22524.22524,0,0,1,.05-.05" transform="translate(-60.9102 -116.16695)"/><line class="cls-5" x1="223.555" y1="138.18206" x2="223.535" y2="138.17206"/><line class="cls-5" x1="225.575" y1="139.42206" x2="225.145" y2="139.15206"/><line class="cls-5" x1="226.355" y1="139.90206" x2="226.295" y2="139.86206"/><line class="cls-5" x1="233.115" y1="144.11206" x2="231.295" y2="142.97206"/><polyline class="cls-5" points="233.115 139.152 233.115 143.862 233.115 144.102"/><polyline class="cls-5" points="242.895 143.702 242.895 143.922 242.835 148.992"/><polyline class="cls-5" points="242.895 148.992 242.895 144.582 242.895 143.922"/><line class="cls-5" x1="238.115" y1="147.21206" x2="238.105" y2="147.20206"/><line class="cls-5" x1="238.585" y1="147.50206" x2="238.485" y2="147.44206"/><path class="cls-5" d="M296.1652,265.229c.01,0,.01-.01.02-.01" transform="translate(-60.9102 -116.16695)"/><path class="cls-5" d="M295.6852,265.339c.13-.03.25-.06.37-.09" transform="translate(-60.9102 -116.16695)"/><line class="cls-5" x1="226.925" y1="147.60206" x2="227.175" y2="147.47206"/><path class="cls-5" d="M287.5752,263.219a1.99964,1.99964,0,0,0,.22.19l.03.37h.01" transform="translate(-60.9102 -116.16695)"/><path class="cls-5" d="M284.4252,259.519v-1.04c0,.01.01.02.01.03a10.13431,10.13431,0,0,0,2.79,4.42" transform="translate(-60.9102 -116.16695)"/><path class="cls-5" d="M284.0352,256.309a.48686.48686,0,0,0,.01.12c0,.05.01.09.01.14a.9005.9005,0,0,0,.03.16,5.0675,5.0675,0,0,0,.09.54l.01.04.03.31.01.08v.02l.2,1.89v-.08" transform="translate(-60.9102 -116.16695)"/><path class="cls-5" d="M283.9852,255.249h-.01v.1c0,.16,0,.31.01.47l.03.3" transform="translate(-60.9102 -116.16695)"/><path class="cls-5" d="M284.0052,254.699c0,.03-.01.07-.01.1-.01.12-.01.25-.01.38" transform="translate(-60.9102 -116.16695)"/><path class="cls-5" d="M284.0152,254.609a.17018.17018,0,0,0-.01.07" transform="translate(-60.9102 -116.16695)"/><path class="cls-5" d="M284.0152,254.509v.01c-.01,0-.01,0,0,.01a.01385.01385,0,0,0,0,.02" transform="translate(-60.9102 -116.16695)"/><path class="cls-5" d="M284.0252,254.429a.01385.01385,0,0,0,0,.02" transform="translate(-60.9102 -116.16695)"/><line class="cls-5" x1="223.525" y1="138.16206" x2="223.515" y2="138.15206"/><line class="cls-5" x1="223.535" y1="138.23206" x2="223.525" y2="138.23206"/><line class="cls-5" x1="225.175" y1="139.27206" x2="224.995" y2="139.15206"/><line class="cls-5" x1="226.295" y1="139.98206" x2="226.235" y2="139.94206"/><line class="cls-5" x1="231.295" y1="143.17206" x2="231.245" y2="143.13206"/><line class="cls-5" x1="233.065" y1="144.24206" x2="233.025" y2="144.26206"/><line class="cls-5" x1="233.165" y1="144.18206" x2="233.125" y2="144.20206"/><line class="cls-5" x1="236.385" y1="146.14206" x2="233.305" y2="144.23206"/><line class="cls-7" x1="238.095" y1="147.20206" x2="236.415" y2="146.15206"/><line class="cls-5" x1="242.775" y1="150.11206" x2="242.825" y2="150.14206"/><path class="cls-5" d="M284.0252,254.489h-.01v.02c0-.01.01,0,.01,0" transform="translate(-60.9102 -116.16695)"/><line class="cls-5" x1="223.175" y1="137.94206" x2="223.515" y2="138.15206"/><path class="cls-5" d="M284.0552,254.089a1.49189,1.49189,0,0,0-.02.21.52829.52829,0,0,0-.01.13h.01" transform="translate(-60.9102 -116.16695)"/><path class="cls-5" d="M284.4252,249.709v-.13l-.33,4.22-.01.05c-.01.08-.02.15-.03.23" transform="translate(-60.9102 -116.16695)"/><path class="cls-5" d="M303.7452,256.049c.02-.24.04-.48.05-.73" transform="translate(-60.9102 -116.16695)"/><path class="cls-5" d="M302.8152,260.509a.03674.03674,0,0,0,.01-.03,18.49939,18.49939,0,0,0,.76-3.06c0-.02.01-.05.01-.07" transform="translate(-60.9102 -116.16695)"/><line class="cls-5" x1="223.085" y1="139.03206" x2="223.075" y2="139.04206"/><polyline class="cls-5" points="224.645 119.382 224.975 119.502 226.015 120.152"/><polyline class="cls-5" points="221.445 119.552 222.595 119.382 222.765 119.382"/><path class="cls-5" d="M282.2552,235.729a20.47828,20.47828,0,0,0-3.33.49l3.33-.49" transform="translate(-60.9102 -116.16695)"/><line class="cls-5" x1="221.345" y1="119.56206" x2="221.445" y2="119.55206"/><path class="cls-5" d="M282.9352,235.649c-.09.01-.17.02-.25.03-.1.01-.21.02-.33.04" transform="translate(-60.9102 -116.16695)"/><path class="cls-5" d="M285.1952,235.549a2.43687,2.43687,0,0,0-.27-.01,2.09021,2.09021,0,0,0-.25.01" transform="translate(-60.9102 -116.16695)"/><path class="cls-5" d="M290.3052,236.319a18.57429,18.57429,0,0,0-4.75-.77" transform="translate(-60.9102 -116.16695)"/><path class="cls-7" d="M303.5952,257.229c.01-.35,0-.7.03-1.06,0-.04.01-.09.01-.13" transform="translate(-60.9102 -116.16695)"/><path class="cls-5" d="M303.5952,257.329v-.1" transform="translate(-60.9102 -116.16695)"/><path class="cls-7" d="M291.4252,265.209a.89291.89291,0,0,0,.2.06" transform="translate(-60.9102 -116.16695)"/><path class="cls-7" d="M287.8052,263.409l.03.03c.09.07.16.13.25.2" transform="translate(-60.9102 -116.16695)"/><path class="cls-7" d="M284.2352,257.719a7.10092,7.10092,0,0,0,.2.76" transform="translate(-60.9102 -116.16695)"/><path class="cls-7" d="M284.0652,256.569c.01.05.01.11.02.16a6.42288,6.42288,0,0,0,.1.75l.01.04c.01.03.01.07.02.1a.23535.23535,0,0,0,.02.08" transform="translate(-60.9102 -116.16695)"/><path class="cls-7" d="M284.0352,254.499c-.01.01-.01.01-.01.02" transform="translate(-60.9102 -116.16695)"/><path class="cls-7" d="M284.0852,253.979c0,.04-.01.07-.01.11" transform="translate(-60.9102 -116.16695)"/><path class="cls-7" d="M284.4452,254.329v-1.95c0,.01-.01.03-.01.04s-.01.03-.01.04a10.55931,10.55931,0,0,0-.32,1.4l-.01.05" transform="translate(-60.9102 -116.16695)"/><polyline class="cls-7" points="240.775 139.272 233.305 139.272 233.305 142.802 233.305 143.972 233.305 144.112 233.305 144.222 233.305 144.232 233.305 144.442 233.125 144.332 233.035 144.262"/><path class="cls-5" d="M284.0252,254.509a.00979.00979,0,0,1,.01-.01" transform="translate(-60.9102 -116.16695)"/><polyline class="cls-6" points="224.985 139.152 223.535 138.232 223.535 138.172 223.535 138.162"/><path class="cls-6" d="M256.7452,117.569a194.86688,194.86688,0,0,0-25.26,1.64,192.25318,192.25318,0,0,0-96.55,41.58c-.16.13-.33.27-.49.4a1.73828,1.73828,0,0,0-.15.13,192.8411,192.8411,0,0,0-70.8,149.06" transform="translate(-60.9102 -116.16695)"/><line class="cls-6" x1="196.125" y1="1.40206" x2="195.835" y2="1.40206"/><line class="cls-6" x1="298.235" y1="57.44206" x2="256.885" y2="23.31206"/><polyline class="cls-6" points="237.145 43.932 284.015 54.312 298.255 57.462"/><path class="cls-6" d="M266.0952,242.929a1.59335,1.59335,0,0,1-.13.13l-.01.01" transform="translate(-60.9102 -116.16695)"/><line class="cls-6" x1="195.905" y1="148.09206" x2="195.915" y2="142.93206"/><path class="cls-6" d="M324.4652,279.479l-.02-.01-7.18-4.46-.02-.02-.07-.04-.07.18-13.76,35.01-.08.2h-.06a.40521.40521,0,0,1-.11,0" transform="translate(-60.9102 -116.16695)"/><polyline class="cls-5" points="305.425 157.712 305.455 157.792 280.535 172.302 280.525 172.312 279.315 173.012 279.245 173.052 279.165 173.002 263.555 163.312"/><polyline class="cls-5" points="292.895 120.352 292.885 120.352 292.855 120.352 292.825 120.352 292.725 120.352 292.725 120.432 292.715 120.512 292.725 120.542 305.425 157.702"/><line class="cls-5" x1="293.035" y1="120.18206" x2="292.905" y2="120.35206"/><polyline class="cls-5" points="300.185 111.022 295.135 117.492 295.135 117.502 293.375 119.752 293.365 119.762 293.215 119.962 293.065 120.152"/><polyline class="cls-6" points="313.015 94.562 300.195 111.002 300.185 111.022"/><path class="cls-5" d="M376.4752,236.519v-.2c-.01-.57-.02-1.22-.05-1.92-.01-.1-.01-.21-.01-.31-.01-.3-.03-.61-.04-.93-.02-.34-.04-.68-.05-1.04v-.12q-.03-.54-.06-1.11a.8602.8602,0,0,1-.01-.16l-.06-.93c-.09-1.49-.2-3.06-.33-4.64-.02-.25-.05-.51-.07-.76-.01-.14-.02-.29-.03-.43-.02-.17-.04-.34-.05-.51l-.09-.99c-.03-.29-.05-.59-.09-.88-.03-.31-.06-.62-.09-.92-.06-.62-.13-1.22-.2-1.82l-.09-.78q-.06-.495-.12-.96c-.02-.15-.04-.3-.06-.44s-.04-.27-.05-.41c-.04-.31-.09-.63-.14-.93-.03-.23-.06-.45-.1-.67v-.02c-.03-.19-.06-.36-.08-.54.02.1.04.19.06.28a1.801,1.801,0,0,0-.06-.32c.01-.01,0-.03-.01-.04a.01875.01875,0,0,0,0-.03l-.01-.01a.14653.14653,0,0,0-.02-.11v-.01a.01875.01875,0,0,0,0-.03c0-.01,0-.01-.01-.02a.50792.50792,0,0,0-.03-.17.06613.06613,0,0,0-.01-.06,2.23058,2.23058,0,0,0-.04-.23c-.01-.05-.02-.11-.03-.16s-.02-.1-.03-.14c-.03-.22-.07-.43-.12-.64-.03-.18-.07-.36-.11-.53a.22018.22018,0,0,0-.01-.08c-.04-.18-.08-.36-.12-.53-.01-.03-.01-.06-.02-.08-.03-.16-.07-.31-.11-.46" transform="translate(-60.9102 -116.16695)"/><polyline class="cls-5" points="233.015 144.262 231.295 143.172 231.245 143.132 226.355 140.012 226.305 139.982 226.295 139.982 226.235 139.942 225.185 139.272 225.175 139.272 224.995 139.152"/><polyline class="cls-5" points="242.835 149.572 242.845 148.992 242.835 148.992"/><line class="cls-6" x1="242.835" y1="150.14206" x2="242.835" y2="149.57206"/><polyline class="cls-5" points="242.905 143.702 242.895 144.582 242.845 148.992"/><polyline class="cls-6" points="242.845 148.992 242.895 148.992 242.905 148.992 242.905 143.702"/><polyline class="cls-5" points="242.905 139.912 242.905 142.272 242.905 142.752 242.905 143.702 242.945 139.882"/><line class="cls-5" x1="224.765" y1="149.15206" x2="224.555" y2="149.16206"/><path class="cls-5" d="M284.0052,255.959c.02.16.03.32.05.47" transform="translate(-60.9102 -116.16695)"/><line class="cls-5" x1="223.085" y1="139.08206" x2="223.075" y2="139.08206"/><path class="cls-5" d="M283.9952,255.089v.09" transform="translate(-60.9102 -116.16695)"/><path class="cls-5" d="M284.0252,254.549a.12683.12683,0,0,1-.01.06,1.2102,1.2102,0,0,1-.01.19" transform="translate(-60.9102 -116.16695)"/><path class="cls-5" d="M284.0252,254.519h-.01v.01s.01-.01.01,0" transform="translate(-60.9102 -116.16695)"/><path class="cls-5" d="M284.0352,254.449v.01a.01385.01385,0,0,0,0,.02v.01" transform="translate(-60.9102 -116.16695)"/><polyline class="cls-5" points="225.135 139.152 223.555 138.182 223.535 138.162 223.525 138.162"/><polyline class="cls-5" points="233.125 139.152 233.125 143.862 233.125 144.112 233.115 144.112 233.115 144.102 231.295 142.972 226.355 139.902 226.295 139.862 225.575 139.422 225.145 139.152"/><polyline class="cls-5" points="223.525 138.152 223.525 136.252 223.525 133.412"/><path class="cls-6" d="M284.0552,254.229c0-.02.01-.05.01-.07" transform="translate(-60.9102 -116.16695)"/><path class="cls-5" d="M284.0552,254.299v-.07" transform="translate(-60.9102 -116.16695)"/><line class="cls-6" x1="223.125" y1="138.26206" x2="223.135" y2="138.26206"/><path class="cls-5" d="M284.0452,254.299a.08456.08456,0,0,0,0,.07c-.01.01-.01.02-.01.04" transform="translate(-60.9102 -116.16695)"/><path class="cls-6" d="M284.0252,254.499h.01v-.01" transform="translate(-60.9102 -116.16695)"/><polyline class="cls-5" points="186.635 87.562 186.445 87.242 185.275 85.292 184.895 84.662 184.715 84.362 184.705 84.342 181.815 79.522 165.385 52.182 163.835 49.592"/><line class="cls-5" x1="187.135" y1="88.38206" x2="186.645" y2="87.57206"/><polyline class="cls-5" points="195.965 56.312 195.965 56.612 195.965 56.622"/><path class="cls-5" d="M257.0352,117.739v-.17a195.33773,195.33773,0,0,1,26.44,1.83c.82.19,1.64.38,2.46.58.01,0,.02.01.04.01q.915.225,1.83.48a2.29115,2.29115,0,0,1,.28.07c.38.1.75.2,1.13.31a.20158.20158,0,0,1,.11.03c.53.14,1.06.29,1.58.45.42.12.83.24,1.25.38.5.15,1,.3,1.5.47.51.15,1.01.32,1.51.49.27.09.55.18.82.28a2.413,2.413,0,0,1,.25.08c.5.17.99.35,1.48.53.82.29,1.64.59,2.46.92.31.11.61.23.92.36.22.08.45.17.67.26.36.14.72.29,1.08.44.77.32,1.55.65,2.31.99.59.25,1.17.51,1.75.78a.925.925,0,0,1,.1.05c.46.21.92.43,1.38.65.49.23.97.46,1.46.7q4.395,2.145,8.58,4.66c.27.16.54.33.81.49,1.72,1.04,3.42,2.13,5.08,3.27.41.27.81.55,1.22.84.22.14.43.29.65.46.44.3.87.61,1.3.93.53.38,1.06.77,1.58,1.17,1.13.84,2.25,1.72,3.36,2.62.39.31.77.63,1.15.95,1,.82,1.98,1.66,2.96,2.53.7.63,1.4,1.26,2.09,1.9q1.56,1.455,3.08,2.97c.31.31.62.62.93.94.17.17.34.34.5.52.37.37.73.75,1.08,1.13.15.14.29.3.43.46.4.43.8.85,1.19,1.29.83.9,1.64,1.83,2.44,2.77.31.35.6.71.9,1.07q1.725,2.055,3.34,4.2a.951.951,0,0,1,.15.2c.54.7,1.07,1.42,1.59,2.14.56.78,1.11,1.56,1.65,2.35.09.12.18.24.26.37.49.73.97,1.46,1.45,2.19.27.41.54.83.8,1.25.26.41.52.83.78,1.25l-41.4-34.15-16.37-13.51,9.73,22.82" transform="translate(-60.9102 -116.16695)"/><line class="cls-5" x1="293.065" y1="120.15206" x2="292.895" y2="120.15206"/><polyline class="cls-5" points="313.185 94.352 313.175 94.362 313.015 94.562"/><path class="cls-5" d="M374.4652,212.209h-.01l-.09-.45c0-.03-.01-.05-.01-.08a.06012.06012,0,0,1-.01-.04c-.04-.19-.08-.38-.13-.57-.04-.18-.08-.37-.12-.55.04.18.09.36.13.55.04.17.08.35.12.53a.22018.22018,0,0,1,.01.08c.04.17.08.35.11.53" transform="translate(-60.9102 -116.16695)"/><path class="cls-5" d="M374.4652,212.219a6.37515,6.37515,0,0,1,.12.63c-.03-.16-.06-.32-.1-.48a.77191.77191,0,0,0-.02-.15" transform="translate(-60.9102 -116.16695)"/><line class="cls-5" x1="313.555" y1="96.05206" x2="313.555" y2="96.04206"/><path class="cls-5" d="M374.7352,213.659h-.01v-.05c.01.01.01.01.01.02a.01875.01875,0,0,1,0,.03" transform="translate(-60.9102 -116.16695)"/><path class="cls-5" d="M374.7552,213.779v-.02a.031.031,0,0,1-.01-.02.03674.03674,0,0,0-.01-.03v-.03" transform="translate(-60.9102 -116.16695)"/><path class="cls-5" d="M374.7352,213.659v.02a.083.083,0,0,1,.02.08" transform="translate(-60.9102 -116.16695)"/><polyline class="cls-5" points="194.615 149.382 195.185 149.382 195.365 149.372 195.895 149.372 195.905 149.372"/><polyline class="cls-5" points="223.525 138.152 223.525 138.162 223.525 138.232 223.525 139.152 223.525 142.092 223.525 142.312"/><line class="cls-5" x1="242.905" y1="139.88206" x2="242.905" y2="139.15206"/><line class="cls-5" x1="235.235" y1="149.06206" x2="230.745" y2="149.10206"/><path class="cls-5" d="M348.9652,294.609a72.93571,72.93571,0,0,1-39.95,15.77h-5.38l.44-.26,36-20.95.07-.04.08.05.57.35,8.17,5.08h.01l.15-.12a73.51648,73.51648,0,0,0,17.68-20.57" transform="translate(-60.9102 -116.16695)"/><polyline class="cls-5" points="233.205 144.162 233.305 144.222 236.385 146.142 236.415 146.152 238.095 147.202 238.105 147.202 238.115 147.212 238.485 147.442 238.585 147.502"/><line class="cls-5" x1="233.125" y1="144.11206" x2="233.195" y2="144.16206"/><polyline class="cls-5" points="223.515 138.142 223.515 138.152 223.525 138.152"/><polyline class="cls-5" points="223.155 137.922 223.165 137.922 223.165 137.932"/><line class="cls-5" x1="102.295" y1="62.88206" x2="105.595" y2="64.93206"/><line class="cls-5" x1="124.695" y1="76.79206" x2="114.765" y2="70.62206"/><line class="cls-5" x1="227.045" y1="149.14206" x2="227.045" y2="149.11206"/><polyline class="cls-5" points="226.895 147.242 226.855 146.822 223.615 139.232 223.525 139.152"/><line class="cls-5" x1="196.745" y1="149.36206" x2="196.265" y2="148.87206"/><polyline class="cls-5" points="195.855 148.472 195.695 148.302 195.365 147.972 195.155 147.762"/><polyline class="cls-5" points="195.905 148.512 195.895 148.512 195.895 148.502 195.865 148.472"/><line class="cls-5" x1="224.685" y1="120.15206" x2="224.625" y2="119.41206"/><polyline class="cls-5" points="227.185 147.472 227.515 147.292 233.015 144.262 233.025 144.262 233.035 144.262 233.065 144.242 233.125 144.212 233.165 144.182 233.195 144.162 233.205 144.162 233.305 144.112 242.745 139.272"/><polyline class="cls-5" points="223.075 139.152 223.525 139.152 224.985 139.152 224.995 139.152 225.135 139.152 225.145 139.152"/><line class="cls-5" x1="223.275" y1="141.10206" x2="223.075" y2="139.18206"/><polyline class="cls-5" points="195.905 148.462 195.895 148.462 195.865 148.472 195.855 148.472 195.345 148.652 195.695 148.302 195.895 148.102 195.905 148.092"/><polyline class="cls-5" points="223.175 137.942 223.085 139.012 223.085 139.032 223.085 139.082 223.075 139.092"/><line class="cls-5" x1="223.175" y1="137.81206" x2="223.175" y2="137.93206"/><line class="cls-7" x1="223.185" y1="137.74206" x2="223.175" y2="137.81206"/><line class="cls-5" x1="223.185" y1="137.68206" x2="223.185" y2="137.74206"/><polyline class="cls-5" points="224.625 119.382 224.625 119.402 224.625 119.412 224.565 120.152"/><polyline class="cls-5" points="196.255 148.872 195.905 148.782 195.345 148.652 195.905 148.622 195.995 148.612"/><line class="cls-5" x1="224.785" y1="149.15206" x2="224.785" y2="149.16206"/><line class="cls-5" x1="224.345" y1="149.16206" x2="224.555" y2="149.15206"/><polyline class="cls-5" points="223.075 149.182 223.525 149.172 224.305 149.162"/><line class="cls-5" x1="224.545" y1="149.16206" x2="223.525" y2="149.17206"/><polyline class="cls-5" points="292.885 120.312 293.035 120.182 293.065 120.152 293.075 120.152 293.215 119.962 293.375 119.762 295.135 117.502 300.185 111.022 313.015 94.562 313.175 94.362 313.185 94.352"/><path class="cls-5" d="M359.2152,173.649c.24.39.49.8.72,1.2.18.28.34.57.51.86.62,1.03,1.21,2.08,1.78,3.14.17.32.35.64.52.96.36.66.71,1.33,1.05,2,.38.74.76,1.49,1.12,2.24l.06.12c.28.58.56,1.17.83,1.76q.36.765.69,1.53.36.78.69,1.56c.33.76.65,1.53.96,2.3.16.39.32.78.47,1.18.16.4.31.8.46,1.19.31.79.6,1.59.88,2.39.27.75.53,1.51.79,2.28.42,1.25.82,2.52,1.19,3.79.1.33.2.67.3,1.01.14.48.28.96.4,1.44.14.48.26.96.38,1.44.2.72.38,1.45.55,2.17.15.62.3,1.24.43,1.86.04.15.07.29.1.44v.04l-.06.64-2.19,25.13-5.31,37.43" transform="translate(-60.9102 -116.16695)"/><line class="cls-5" x1="195.835" y1="1.40206" x2="196.125" y2="2.88206"/><polyline class="cls-5" points="195.835 1.402 196.125 1.572 250.245 32.622"/><polyline class="cls-6" points="298.235 57.442 298.255 57.462 298.275 57.472"/><line class="cls-5" x1="250.245" y1="32.62206" x2="298.235" y2="57.44206"/><polyline class="cls-5" points="196.085 75.122 204.195 120.152 196.085 103.282 195.965 106.312 195.955 110.012 187.135 88.382"/><polyline class="cls-5" points="196.015 75.022 196.005 74.692 196.015 74.752 196.055 74.962 196.075 75.082"/><polyline class="cls-5" points="163.825 49.592 163.825 49.602 165.385 52.182 181.805 79.522 184.705 84.342 184.715 84.362 184.895 84.662 185.275 85.292 186.445 87.242 186.635 87.562 186.645 87.572 187.125 88.382 178.585 82.082 170.945 76.312 152.925 61.422"/><polyline class="cls-5" points="152.885 61.392 159.625 54.132 163.405 50.052 163.825 49.602"/><polyline class="cls-5" points="170.945 29.862 195.955 49.842 196.055 49.912"/><line class="cls-5" x1="195.965" y1="53.41206" x2="196.045" y2="53.44206"/><line class="cls-5" x1="167.345" y1="39.84206" x2="195.965" y2="53.40206"/><polyline class="cls-5" points="196.045 56.322 195.965 56.312 163.835 49.592"/><polyline class="cls-5" points="162.945 49.542 153.535 49.032 101.775 46.222 74.105 44.722"/><polyline class="cls-5" points="170.945 29.862 167.345 39.842 163.835 49.592"/><polygon class="cls-5" points="195.835 1.402 170.945 29.862 107.355 39.622 74.105 44.722 118.315 28.992 118.325 28.982 195.835 1.402"/><polyline class="cls-5" points="152.895 61.392 152.885 61.392 112.045 46.802 153.535 49.032 162.945 49.542 163.825 49.592 163.835 49.592 163.825 49.602"/><polyline class="cls-5" points="292.885 120.312 292.895 120.352 292.905 120.352 294.095 123.872 305.625 157.582 305.625 157.592 305.615 157.592 305.425 157.702 305.425 157.712 280.705 172.102 280.695 172.112 280.675 172.122 279.465 172.822 279.415 172.852"/><line class="cls-5" x1="279.405" y1="172.85206" x2="263.705" y2="163.10206"/><polyline class="cls-5" points="242.525 193.972 242.445 194.192 242.435 194.212 242.345 194.432 242.725 194.212"/><polyline class="cls-5" points="279.415 172.852 279.405 172.852 279.235 172.962"/><path class="cls-5" d="M300.7152,244.059a18.906,18.906,0,0,0-10.41-7.74h1.92" transform="translate(-60.9102 -116.16695)"/><line class="cls-5" x1="292.895" y1="120.15206" x2="292.885" y2="120.31206"/><polygon class="cls-5" points="292.885 120.312 292.875 120.322 292.855 120.352 292.725 120.542 284.885 132.052 263.705 163.102 263.665 163.082 256.435 158.582 263.305 141.082 282.875 127.342 292.725 120.432 292.825 120.352 292.875 120.322 292.875 120.312 292.885 120.312"/><polyline class="cls-5" points="242.345 194.432 242.495 194.212 242.655 193.972 242.665 193.972 263.555 163.312 263.705 163.102"/><polyline class="cls-5" points="237.145 43.932 284.015 54.312 298.275 57.472 298.285 57.482"/><polyline class="cls-5" points="242.105 119.342 232.335 102.412 231.525 101.022 231.515 101.002 226.115 91.652 224.215 88.362 222.445 85.292 217.565 76.832 222.185 69.502 222.205 69.462 223.625 67.222 235.905 101.842 242.125 119.372"/><polyline class="cls-5" points="196.055 49.922 196.055 49.912 196.125 2.902"/><polygon class="cls-5" points="237.145 43.932 225.445 49.612 206.925 58.602 206.605 56.932 196.125 2.902 196.125 2.882 196.125 1.702 237.145 43.932"/><polyline class="cls-5" points="196.045 56.332 196.045 56.322 196.045 53.442"/><polyline class="cls-5" points="196.015 74.682 196.025 64.112 196.045 56.332 204.565 58.112 206.915 58.602"/><line class="cls-5" x1="196.145" y1="74.82206" x2="196.055" y2="74.96206"/><polyline class="cls-5" points="196.125 1.702 195.835 1.402 195.955 49.842 195.965 53.402 195.965 53.412 195.965 56.312"/><polyline class="cls-5" points="196.105 110.132 196.095 108.112 196.085 103.282 196.015 75.072"/><line class="cls-5" x1="250.245" y1="32.62206" x2="237.145" y2="43.93206"/><polyline class="cls-5" points="242.125 119.372 240.885 101.532 239.055 75.192"/><polyline class="cls-5" points="285.355 61.572 297.605 57.972 290.595 65.732"/><polyline class="cls-5" points="298.275 57.472 298.295 57.472 298.295 57.482 298.285 57.482 285.355 61.572 239.055 75.192 223.625 67.222 223.615 67.222 219.705 65.202 219.695 65.192 206.925 58.602 280.105 58.092 298.285 57.482"/><polyline class="cls-5" points="298.305 57.482 296.575 71.582 292.895 120.152 292.885 120.152 271.945 120.152"/><polygon class="cls-5" points="156.635 79.312 152.885 63.592 113.655 49.592 156.635 79.312"/><line class="cls-5" x1="248.155" y1="125.56206" x2="248.135" y2="125.54206"/><polyline class="cls-5" points="271.945 120.152 263.305 141.082 263.295 141.072"/><polyline class="cls-5" points="242.125 119.372 256.095 103.912 290.595 65.732 298.305 57.482 293.355 68.272 274.055 115.032 271.945 120.152 271.935 120.152 242.885 120.152"/><polyline class="cls-5" points="152.895 61.392 152.895 61.402 152.925 61.422 177.045 87.512 195.955 110.012 195.935 121.022 174.825 92.312 174.795 92.292 159.105 79.152 152.895 61.402"/><polygon class="cls-5" points="179.045 100.252 172.555 98.282 149.735 92.332 158.825 82.082 167.155 89.052 173.965 95.102 179.045 100.252"/><polygon class="cls-5" points="146.655 89.962 154.305 81.852 140.165 69.902 146.655 89.962"/><polyline class="cls-5" points="112.195 51.652 104.325 51.652 114.535 61.212"/><polygon class="cls-5" points="114.535 61.212 132.685 69.232 112.195 51.652 114.535 61.212"/><polygon class="cls-5" points="75.545 47.722 101.715 51.292 56.515 68.182 75.545 47.722"/><polygon class="cls-5" points="46.375 90.152 36.395 90.152 33.385 101.922 46.375 90.152"/><polygon class="cls-5" points="50.165 76.822 46.375 82.692 52.125 81.852 50.165 76.822"/><polygon class="cls-5" points="56.805 79.152 52.125 109.542 64.145 92.062 56.805 79.152"/><polygon class="cls-5" points="63.895 69.512 63.295 68.872 56.805 71.122 68.205 74.112 63.895 69.512"/><polygon class="cls-5" points="65.855 67.682 81.035 62.252 83.025 80.442 83.025 80.462 83.625 85.972 81.805 84.102 81.805 84.092 70.215 72.162 65.855 67.682"/><polyline class="cls-5" points="96.125 89.592 88.815 81.102 96.125 74.112"/><polygon class="cls-5" points="114.765 70.622 117.115 67.122 129.835 73.822 124.695 76.792 101.715 90.052 114.765 70.622"/><polygon class="cls-5" points="101.215 56.072 96.995 59.582 89.115 66.142 84.595 69.902 83.125 62.252 93.135 58.832 94.845 58.252 101.215 56.072"/><polygon class="cls-5" points="134.495 94.352 143.145 107.802 95.705 103.002 134.495 94.352"/><polygon class="cls-5" points="105.615 64.942 109.435 68.872 107.245 74.112 102.295 62.882 101.215 60.422 105.595 64.932 105.615 64.942"/><polygon class="cls-5" points="60.475 44.722 62.185 50.172 65.855 41.062 60.475 44.722"/><polygon class="cls-5" points="51.655 51.532 46.375 57.152 55.385 56.072 51.655 51.532"/><polygon class="cls-5" points="40.475 105.472 37.985 119.052 41.775 117.112 40.475 105.472"/><polygon class="cls-5" points="24.125 113.192 30.035 118.622 24.125 130.052 24.125 113.192"/><polyline class="cls-5" points="9.575 95.862 13.685 102.652 17.125 97.862"/><polygon class="cls-5" points="17.125 97.862 17.125 93.892 9.575 95.862 17.125 97.862"/><polygon class="cls-5" points="7.635 130.052 0.125 142.742 0.125 134.382 7.635 130.052"/><polygon class="cls-5" points="11.825 156.952 9.915 161.212 12.815 160.602 11.825 156.952"/><polygon class="cls-5" points="36.045 129.822 30.035 156.712 58.135 118.262 36.045 129.822"/><polygon class="cls-5" points="46.525 93.892 44.825 96.842 46.525 101.922 46.525 93.892"/><polygon class="cls-5" points="72.475 85.972 79.255 93.062 73.125 101.822 72.475 85.972"/><polygon class="cls-5" points="96.125 74.112 99.525 81.852 96.125 89.592 96.125 74.112"/><line class="cls-5" x1="242.965" y1="139.15206" x2="242.955" y2="139.15206"/><polyline class="cls-5" points="242.345 194.432 242.345 194.212 242.345 194.192 242.345 194.172 242.355 193.972"/><line class="cls-5" x1="242.965" y1="138.26206" x2="242.955" y2="139.15206"/><polyline class="cls-5" points="230.505 149.042 230.515 149.042 233.125 148.992 233.125 148.812 233.125 144.332 233.125 144.212 233.125 144.202 233.125 144.112"/><polyline class="cls-5" points="293.075 120.152 310.935 120.152 315.565 120.152 315.725 120.152 315.735 120.152"/><polyline class="cls-5" points="233.125 139.152 233.305 142.802 233.365 144.012 233.305 143.972 233.125 143.862 233.115 143.862 226.525 139.772 225.145 139.152 230.835 139.152"/><polyline class="cls-5" points="224.645 119.382 224.655 119.402 224.665 119.412 224.725 119.492 225.035 119.872"/><polyline class="cls-5" points="240.675 139.152 233.125 139.152 233.115 139.152 230.835 139.152 228.385 131.382 224.655 119.412"/><path class="cls-5" d="M278.3852,242.689l-4.78,4.76-4.73-2.95-2.67-1.66-.02-.01a29.01506,29.01506,0,0,1,12.33-6.51c.14-.04.27-.07.41-.1l4.01-.57.74-.1.07-.01.93.01" transform="translate(-60.9102 -116.16695)"/><polyline class="cls-5" points="224.635 119.392 224.625 119.402 223.875 120.152 218.045 125.952"/><path class="cls-5" d="M273.5452,247.529l.06.04-.02.02-7.46,7.46-9.23,9.23v-.1l.01-5.06c.06-.33.14-.66.21-.98q.165-.69.36-1.38c.11-.39.22-.77.35-1.15.14-.42.28-.83.44-1.24.15-.4.31-.8.49-1.19.17-.41.36-.81.56-1.21a3.01331,3.01331,0,0,1,.16-.31q.21-.435.45-.87a3.60745,3.60745,0,0,1,.22-.39q.315-.57.66-1.11.405-.645.84-1.26c.23-.34.48-.67.73-1,.22-.28.44-.56.67-.83q.255-.315.54-.63c.25-.3.52-.59.79-.88l.81-.81c.28-.27.56-.54.85-.79.05-.05.1-.09.15-.14l2.69,1.67Z" transform="translate(-60.9102 -116.16695)"/><polyline class="cls-5" points="206.925 58.602 206.925 58.612 209.495 63.052 224.105 88.272 224.115 88.292 231.525 101.082 231.535 101.102 232.305 102.422 239.375 114.632 242.105 119.342"/><polyline class="cls-5" points="196.015 74.692 196.005 74.692 196.015 74.682 206.915 58.612 206.925 58.612"/><polyline class="cls-5" points="227.005 103.812 196.145 74.822 196.015 74.702"/><path class="cls-5" d="M303.7952,236.319h-11.57a28.95651,28.95651,0,0,0-6.69-.78l-6.77-11.42-21.77-32.83-.07-.1.06.06,30.93,28.73,15.1,15.53.02.03Z" transform="translate(-60.9102 -116.16695)"/><polyline class="cls-5" points="206.915 58.602 205.155 57.762 196.045 53.442 196.055 49.922 205.565 57.522 206.915 58.602 206.925 58.602"/><path class="cls-5" d="M265.9652,243.059l.02.01c-.29.25-.57.52-.85.79-.28.26-.54.53-.81.81-.27.29-.54.58-.79.88-.19.2-.37.42-.54.63-.23.27-.45.55-.67.83-.25.33-.49.66-.73,1q-.435.615-.84,1.26-.345.54-.66,1.11a3.60745,3.60745,0,0,0-.22.39q-.24.435-.45.87a3.01331,3.01331,0,0,0-.16.31c-.2.4-.39.8-.56,1.21-.18.39-.34.79-.49,1.19-.16.41-.3.82-.44,1.24-.13.38-.25.76-.35,1.15q-.195.69-.36,1.38c-.08.32-.14.65-.21.98v-3.58l.03-18.08v-.02l5.42,3.36Z" transform="translate(-60.9102 -116.16695)"/><path class="cls-5" d="M278.5152,236.319h.33a29.07666,29.07666,0,0,0-12.64,6.52c-.03.03-.07.06-.1.09h-.01l-3.73-2.32-5.42-3.36-.09-.06.02-11.01.14.12.02,10.02h21.48Z" transform="translate(-60.9102 -116.16695)"/><polyline class="cls-5" points="195.945 121.252 195.945 121.032 195.945 121.022"/><polyline class="cls-5" points="196.015 75.022 196.015 75.072 195.975 103.092"/><line class="cls-5" x1="196.125" y1="1.40206" x2="196.125" y2="0.30206"/><line class="cls-5" x1="196.125" y1="1.70206" x2="196.125" y2="1.57206"/><path class="cls-5" d="M284.7852,236.319h.69l-1.04,13.26-.01.13-.32,4.09-.01.05-.03.24" transform="translate(-60.9102 -116.16695)"/><polyline class="cls-5" points="212.615 131.382 212.635 131.362 217.475 126.522 218.045 125.952 223.525 120.472 223.845 120.152"/><polyline class="cls-5" points="195.905 148.462 195.905 148.092 195.985 148.012 205.135 138.862 212.615 131.382 212.675 131.422 223.145 137.912 223.145 137.922"/><path class="cls-5" d="M283.9852,255.179v.14" transform="translate(-60.9102 -116.16695)"/><path class="cls-5" d="M284.0352,254.409a.01385.01385,0,0,0,0,.02.01385.01385,0,0,0,0,.02h-.01v.07c-.01,0-.01,0,0,.01a.01385.01385,0,0,0,0,.02h-.01v.06c0,.02-.01.04-.01.07v.12a1.275,1.275,0,0,0-.01.2.13875.13875,0,0,0,0,.09" transform="translate(-60.9102 -116.16695)"/><path class="cls-5" d="M284.0652,254.089a.6602.6602,0,0,0-.01.14.14828.14828,0,0,0-.01.07" transform="translate(-60.9102 -116.16695)"/><path class="cls-5" d="M256.8152,264.679v-.05l10.42-3.57,16.74-5.74h.01v.03c0,.16,0,.31.01.47,0,.05.01.09.01.14s.01.11.01.16c.01.06.01.13.02.19a.50194.50194,0,0,0,.02.12c0,.05.01.09.01.14.03.23.07.47.12.7l.01.04.04.39v.02l.19,1.8v.01l.01.07" transform="translate(-60.9102 -116.16695)"/><polyline class="cls-5" points="198.295 149.352 196.265 148.872 196.255 148.872 195.995 148.612 195.905 148.522"/><polyline class="cls-5" points="224.125 149.152 224.305 149.162 224.345 149.162 224.545 149.162 224.555 149.162 224.785 149.162 224.795 149.162"/><polyline class="cls-5" points="198.305 149.352 208.665 149.272 223.525 149.152"/><polyline class="cls-5" points="196.755 149.362 198.295 149.352 198.305 149.352 211.605 152.502 227.625 156.292"/><path class="cls-5" d="M302.2852,310.159a46.37871,46.37871,0,0,1-16.14-2.89c-.94-.36-1.86-.74-2.77-1.14-1.22-.55-2.41-1.15-3.57-1.79-.87-.49-1.71-1-2.54-1.53a46.31773,46.31773,0,0,1-12.18-11.44c-.19-.26-.39-.53-.58-.8a46.06253,46.06253,0,0,1-7.7-18.37v-1.76l.01-4.9.84-.01h.01l28.55,28.55,16.07,16.07v.01h.01" transform="translate(-60.9102 -116.16695)"/><path class="cls-5" d="M303.7452,266.529v.04l-.24,21.35-.24,22.22h-.06c-.3.02-.61.02-.91.02l-.01-.01-6.52-17.89-7.05-19.32-.18-.48-2.83-7.13,2.25-.02,3.67-.04h.03a9.11734,9.11734,0,0,0,2.16.25c.13,0,.26,0,.4-.01a10.17447,10.17447,0,0,0,1.47-.17c.13-.03.25-.05.37-.09a.292.292,0,0,0,.09-.02h.02" transform="translate(-60.9102 -116.16695)"/><polyline class="cls-5" points="241.015 149.012 242.775 150.112 242.825 150.132 242.825 150.142 242.835 150.142 242.835 150.362 240.665 149.012"/><path class="cls-5" d="M317.2552,274.949l.03.02-.02.04-.05.14-13.84,35.21h-.02a.33335.33335,0,0,1-.1,0h-.05v-.22l.24-22,.24-21.39v-.22l.06.04.07.04,9.9,6.15Z" transform="translate(-60.9102 -116.16695)"/><path class="cls-5" d="M291.4052,265.209l-3.45.07-2.26.04h-1.26v-6.84c0,.01.01.02.01.03a10.17251,10.17251,0,0,0,2.78,4.42c.11.09.23.19.35.29.07.06.14.12.22.19h.01l.03.36v.01l.25-.14h.01c.13.1.27.2.41.29a9.33552,9.33552,0,0,0,2.9,1.28h.01" transform="translate(-60.9102 -116.16695)"/><path class="cls-5" d="M299.5052,263.669a17.70382,17.70382,0,0,0,1.6-1.24c.02-.02.04-.03.05-.05a4.14586,4.14586,0,0,0,.43-.4,7.56115,7.56115,0,0,0,1.23-1.46v-.01a4.003,4.003,0,0,0,.38-.74,5.7287,5.7287,0,0,0,.4-2.42v-.02c.06-.42.11-.85.15-1.28" transform="translate(-60.9102 -116.16695)"/><polyline class="cls-5" points="242.905 139.882 242.905 139.912 242.895 140.692 242.855 143.922 242.795 148.992"/><path class="cls-5" d="M296.1652,265.229h.02v-.01a9.59084,9.59084,0,0,0,3.09-1.39c.02-.01.04-.03.06-.04.06-.04.11-.08.16-.12h.01l1.38.86,1.03.65h.01" transform="translate(-60.9102 -116.16695)"/><polyline class="cls-5" points="241.005 149.012 240.665 149.012 239.545 149.022 235.275 149.062"/><polyline class="cls-5" points="195.905 149.372 195.905 148.782 195.905 148.622 195.905 148.522 195.905 148.512"/><line class="cls-5" x1="226.015" y1="120.15206" x2="239.805" y2="127.89206"/><polyline class="cls-5" points="240.675 139.152 232.825 129.482 225.255 120.152"/><line class="cls-5" x1="224.625" y1="119.38206" x2="224.625" y2="119.37206"/><polygon class="cls-5" points="224.645 119.382 226.015 120.152 225.255 120.152 225.035 119.872 224.725 119.492 224.665 119.412 224.655 119.412 224.655 119.402 224.635 119.392 224.635 119.382 224.645 119.382"/><path class="cls-5" d="M303.7952,255.319c.01-.29.02-.59.02-.89a18.77533,18.77533,0,0,0-3.1-10.37l9.81,5.5v.01l13.67,7.67h.01v.01h.01" transform="translate(-60.9102 -116.16695)"/><polyline class="cls-5" points="263.295 141.082 252.735 140.462 242.965 139.882 242.945 139.882"/><path class="cls-5" d="M303.8052,256.049h-.07l-.1-.01c.01-.2.02-.4.02-.6h-1.97l-.1-.12h2.28l-.01.73h-.04" transform="translate(-60.9102 -116.16695)"/><line class="cls-5" x1="195.965" y1="56.31206" x2="196.045" y2="56.33206"/><polyline class="cls-5" points="196.015 75.022 187.135 88.382 193.205 66.552 195.965 56.622 195.985 64.132 195.985 64.142 196.005 72.052 196.015 74.682"/><polyline class="cls-5" points="196.015 74.692 196.015 74.702 196.015 74.752"/><line class="cls-5" x1="196.045" y1="56.33206" x2="195.965" y2="56.61206"/></g><line class="cls-8" x1="315.28201" y1="194.12" x2="2.83206" y2="1.12"/><path class="cls-9" d="M286.71223,236.747h-4.56c.75-.07,1.51-.1,2.28-.1S285.96223,236.677,286.71223,236.747Z" transform="translate(-60.9102 -116.16695)"/><g class="cls-1"><path class="cls-10" d="M265.80226,117.287c.96991.09571,1.94273.14421,2.91752.20217.97681.03652,1.94506.17851,2.9179.26381l-.02516.24866q-7.42064-.57427-14.87041-.58964l.00026-.25,4.53235,0C262.78621,117.14746,264.29239,117.29637,265.80226,117.287Zm0,0c-1.51009-.00943-3.02388.13948-4.53235.125l-4.52754,0,.00024-.25q7.45221.01492,14.88921.59039l-.02515.24866c-.96715-.11138-1.93886-.16606-2.902-.32622C267.73947,117.53608,266.77232,117.3879,265.80226,117.287Z" transform="translate(-60.9102 -116.16695)"/></g><path class="cls-9" d="M376.19221,234.59694v2.15c0-1.03-.00994-2.07-.04-3.09C376.17226,233.96694,376.18227,234.28694,376.19221,234.59694Z" transform="translate(-60.9102 -116.16695)"/><path class="cls-9" d="M376.19221,236.747v3.07c-.03.99-.07995,1.97-.15,2.95C376.14223,240.767,376.19221,238.767,376.19221,236.747Z" transform="translate(-60.9102 -116.16695)"/><path class="cls-9" d="M284.43227,264.357v.09H256.75221a42.57815,42.57815,0,0,0,.23,4.38995c-.11-.65-.19-1.3-.24-1.97v-2.51Z" transform="translate(-60.9102 -116.16695)"/><g class="cls-1"><path class="cls-10" d="M256.84224,261.03694a6.10944,6.10944,0,0,0,.02472.65982l.01783.80612c.01.54579-.00044,1.09785-.01753,1.634h-.25l0-1.55519a5.58967,5.58967,0,0,1,.02783-.81039A3.84545,3.84545,0,0,0,256.84224,261.03694Zm0,0a2.69931,2.69931,0,0,0,.04112.81027c-.02707.19556-.01207.49283-.01613.73988l0,1.54979h-.25c.01625-.49716.03915-.97841.08244-1.46594l.06784-.74383C256.80575,261.63758,256.82858,261.3471,256.84224,261.03694Z" transform="translate(-60.9102 -116.16695)"/></g><rect class="cls-9" x="195.83206" y="148.19" width="27.69" height="0.09003"/><path class="cls-9" d="M293.55226,264.227v.11h-9.12v-9.11h.11A9.00282,9.00282,0,0,0,293.55226,264.227Z" transform="translate(-60.9102 -116.16695)"/><path class="cls-9" d="M302.55226,255.227a9.00072,9.00072,0,0,1-9,9v-9Z" transform="translate(-60.9102 -116.16695)"/><path class="cls-9" d="M269.01222,264.357a.40539.40539,0,0,0,.05.09h15.37v-.09Zm24.54-9.13v9a9.00072,9.00072,0,0,0,9-9Zm-9.01,0h-.11v9.11h9.12v-.11A9.00282,9.00282,0,0,1,284.54225,255.227Z" transform="translate(-60.9102 -116.16695)"/><path class="cls-9" d="M302.66225,255.227v9.13h-18.23v-.02h9.12v-.11a9.00072,9.00072,0,0,0,9-9Z" transform="translate(-60.9102 -116.16695)"/><g class="cls-1"><path class="cls-11" d="M256.74226,310.28694" transform="translate(-60.9102 -116.16695)"/></g><g class="cls-1"><path class="cls-10" d="M63.74226,310.28694c-.124-6.31833.01455-12.65248.51383-18.96572.51691-6.31018,1.28942-12.60929,2.425-18.85028a183.37166,183.37166,0,0,1,4.28821-18.54739c.918-3.04027,2.02091-6.02245,3.04744-9.0275l.77182-2.25366.38834-1.1259.45459-1.10091,1.81872-4.4035c9.55925-23.56741,24.20124-44.91807,42.00837-63.00984,18.09151-17.807,39.44078-32.45179,63.00882-42.00986A190.80765,190.80765,0,0,1,256.74217,116.287l1.00009.00093v73.36906l.01148,18.09248c-.04012,6.03082-.18642,12.06164-.27442,18.09246l-.64035,36.185-.00006.00389-.00032.00483-.158,2.41144.06169,2.41995-.1584-2.41995.06207-2.42849-.00038.00833-.64035-36.185c-.088-6.03082-.2343-12.06164-.27441-18.09246l.01147-18.09248V117.287l.99991.99991a188.80139,188.80139,0,0,0-73.51061,14.55367c-23.32356,9.45705-44.45156,23.95326-62.35878,41.5758-17.62271,17.90747-32.11611,39.0369-41.57437,62.35988-2.57242,5.74518-4.36017,11.7869-6.405,17.72765-1.89693,5.9935-3.53831,12.07464-4.84636,18.23527A198.816,198.816,0,0,0,63.74226,310.28694Z" transform="translate(-60.9102 -116.16695)"/></g><g class="cls-1"><path class="cls-10" d="M256.74226,262.02693c.00263.35132.01544.72169.04434,1.09263l.046,1.24093c.029.83682.03511,1.68037.03468,2.50637l-.24953.0109-.11052-2.43086c.018-.42226.04206-.865.09362-1.30031A6.805,6.805,0,0,0,256.74226,262.02693Zm0,0a8.18815,8.18815,0,0,0,.0314,1.30032c.01488.37129.00229.73526-.01645,1.11965l.10958,2.40907-.24953.01089c-.00043-.7873.00572-1.55706.03468-2.33354l.046-1.17906C256.72683,262.91856,256.73965,262.48228,256.74226,262.02693Z" transform="translate(-60.9102 -116.16695)"/></g><path class="cls-9" d="M284.54225,255.227h-.11v9.11h9.12v-.11A9.00282,9.00282,0,0,1,284.54225,255.227Zm9.01,0v9a9.00072,9.00072,0,0,0,9-9Zm-9.12-18.58c-.77,0-1.53.03-2.28.1h4.56C285.96223,236.677,285.20222,236.64693,284.43227,236.64693Zm-27.69,27.71v-.22c0-1.04.03-2.08.1-3.1-.04.32-.08.65-.1.99-.07.79-.11,1.6-.11,2.42005s.04,1.62.11,2.42c.05.67.13,1.32.24,1.97a42.57815,42.57815,0,0,1-.23-4.38995h27.68006v-.09Z" transform="translate(-60.9102 -116.16695)"/><path class="cls-9" d="M256.74226,264.357a.27836.27836,0,0,0,.01.09h27.68006v-.09Zm27.69-27.71c-.77,0-1.53.03-2.28.1h4.56C285.96223,236.677,285.20222,236.64693,284.43227,236.64693Zm9.12,18.58v9a9.00072,9.00072,0,0,0,9-9Zm-9.01,0h-.11v9.11h9.12v-.11A9.00282,9.00282,0,0,1,284.54225,255.227Z" transform="translate(-60.9102 -116.16695)"/><path class="cls-9" d="M256.74226,264.357v-.22c0-1.04.03-2.08.1-3.1-.04.32-.08.65-.1.99-.07.79-.11,1.6-.11,2.42005s.04,1.62.11,2.42c.05.67.13,1.32.24,1.97a42.57815,42.57815,0,0,1-.23-4.38995h27.68006v-.09Zm27.69-27.71c-.77,0-1.53.03-2.28.1h4.56C285.96223,236.677,285.20222,236.64693,284.43227,236.64693Zm9.12,18.58v9a9.00072,9.00072,0,0,0,9-9Zm-9.01,0h-.11v9.11h9.12v-.11A9.00282,9.00282,0,0,1,284.54225,255.227Zm91.65-20.63c-.00994-.31-.01995-.63-.04-.94.03,1.02.04,2.06.04,3.09,0,2.02-.05,4.02-.15,6.02.07-.98005.12-1.96.15-2.95.03-.86.05-1.74.05-2.61S376.22224,235.46694,376.19221,234.59694Z" transform="translate(-60.9102 -116.16695)"/><path class="cls-9" d="M284.43227,236.64693c-.77,0-1.53.03-2.28.1h4.56C285.96223,236.677,285.20222,236.64693,284.43227,236.64693Zm9.12,18.58v9a9.00072,9.00072,0,0,0,9-9Zm-9.01,0h-.11v9.11h9.12v-.11A9.00282,9.00282,0,0,1,284.54225,255.227Zm-27.8,9.13v-.22c0-1.04.03-2.08.1-3.1-.04.32-.08.65-.1.99-.07.79-.11,1.6-.11,2.42005s.04,1.62.11,2.42c.05.67.13,1.32.24,1.97a42.57815,42.57815,0,0,1-.23-4.38995h27.68006v-.09Zm9.06-147.07q-4.66508-.375-9.44-.37-4.77,0-9.44.37c-2,.15-3.98005.36-5.94.61q7.62-.615,15.39-.61h.37q7.51493.015,14.88.59C269.70222,117.637,267.75221,117.437,265.80226,117.28694Z" transform="translate(-60.9102 -116.16695)"/><path class="cls-9" d="M293.55226,255.227v9a9.00282,9.00282,0,0,1-9.01-9Z" transform="translate(-60.9102 -116.16695)"/><path class="cls-9" d="M302.66225,236.747v18.48h-.1a18.01637,18.01637,0,0,0-18.02-18.02h-.11v-.46Z" transform="translate(-60.9102 -116.16695)"/><path class="cls-9" d="M282.15224,236.747a27.78919,27.78919,0,0,0-25.31,24.29c-.04.32-.08.65-.1.99v-25.28Z" transform="translate(-60.9102 -116.16695)"/><path class="cls-9" d="M376.19221,236.747h-89.48c-.75-.07-1.51-.1-2.28-.1s-1.53.03-2.28.1h-25.41v-119.46q7.51493.015,14.88.59a.27638.27638,0,0,0,.09.01,119.8632,119.8632,0,0,1,104.43,115.53,1.92528,1.92528,0,0,1,.01.24C376.18227,234.677,376.19221,235.71694,376.19221,236.747Z" transform="translate(-60.9102 -116.16695)"/><path class="cls-9" d="M376.19221,236.747c0,2.02-.05,4.02-.15,6.02a.75578.75578,0,0,1-.01.15,73.59845,73.59845,0,0,1-64.88,67.37h-8.49v-73.54Z" transform="translate(-60.9102 -116.16695)"/><path class="cls-9" d="M302.66225,264.357v45.93a46.15066,46.15066,0,0,1-45.68-41.43v-.02a42.57815,42.57815,0,0,1-.23-4.38995h27.68006v-.09Z" transform="translate(-60.9102 -116.16695)"/><path class="cls-9" d="M284.43227,236.747v27.61h-27.69v-.22c0-1.04.03-2.08.1-3.1a27.78919,27.78919,0,0,1,25.31-24.29Z" transform="translate(-60.9102 -116.16695)"/><path class="cls-9" d="M302.56227,255.227h-18.13v-18.02h.11A18.01637,18.01637,0,0,1,302.56227,255.227Z" transform="translate(-60.9102 -116.16695)"/><line class="cls-12" x1="2.83206" y1="1.12" x2="315.28201" y2="194.12"/><path class="cls-3" d="M426.89355,132.27783v12.41553h-5.78222a.51084.51084,0,0,0-.33985.085,21.58906,21.58906,0,0,0-19.30371,12.33057v-3.7417a21.14022,21.14022,0,0,1,21.08887-21.08936ZM422.55664,162.041v12.41552h-8.67383v17.34717h-12.415V165.52734a19.69964,19.69964,0,0,1,14.88184-18.11279,8.42383,8.42383,0,0,0-2.4668,5.95264V162.041Zm-1.44531-17.34766h0Zm1.44531,0h0Z" transform="translate(-60.9102 -116.16695)"/><path class="cls-3" d="M435.22656,151.58154a21.85583,21.85583,0,0,0,12.5-19.644v39.88281a21.71018,21.71018,0,0,0-12.5,19.64356Zm0-19.644h10.374a19.63611,19.63611,0,0,1-10.374,17.34766Zm12.5,42.17871v17.34766h-10.459A19.71437,19.71437,0,0,1,447.72656,174.11621Z" transform="translate(-60.9102 -116.16695)"/><path class="cls-3" d="M480.21,132.78809a17.98381,17.98381,0,0,1,17.8584,17.94287,21.80035,21.80035,0,0,1-.25586,3.3164.31358.31358,0,0,1-.085.25537,21.104,21.104,0,0,0-9.7793-7.56835l-.085-.085a20.13836,20.13836,0,0,0-7.4834-1.36084H455.97461V132.78809Zm-24.23535,59.186V147.24463h12.415v32.314h11.90527a5.42563,5.42563,0,0,0,5.44238-5.44238,5.53758,5.53758,0,0,0-5.35742-5.52734h-9.86426V156.17334H480.125a5.4988,5.4988,0,0,0,5.52734-5.44238,5.34662,5.34662,0,0,0-.76562-2.80616,19.71939,19.71939,0,0,1,12.16113,8.75879,16.14357,16.14357,0,0,1-3.23144,5.61231,17.916,17.916,0,0,1-12.58594,29.67822Z" transform="translate(-60.9102 -116.16695)"/><path class="cls-3" d="M425.5332,234.15332a29.83223,29.83223,0,0,1,29.67774,29.7627,26.95744,26.95744,0,0,1-.59473,5.86718.76757.76757,0,0,1-.085.42578,27.82737,27.82737,0,0,0-4.84766-11.90527,1.17284,1.17284,0,0,0-.25488-.33984,29.35878,29.35878,0,0,0-21.25976-12.2461H427.999a25.76919,25.76919,0,0,0-2.63574-.16992H401.46777V234.15332Zm-24.06543,13.43555h12.415v33.58984H425.5332A17.32966,17.32966,0,0,0,442.7959,263.916a17.106,17.106,0,0,0-7.99414-14.541,28.06879,28.06879,0,0,1,18.36816,25.51074,29.89883,29.89883,0,0,1-27.63672,18.793H401.46777Z" transform="translate(-60.9102 -116.16695)"/><path class="cls-3" d="M505.80859,257.87793v12.416H481.4873a7.4929,7.4929,0,0,0-1.44531.16992,21.83811,21.83811,0,0,0-16.07226,9.09863,18.85116,18.85116,0,0,1-.42481-3.82617A17.88315,17.88315,0,0,1,467.9668,264.001a16.97723,16.97723,0,0,1-3.14649-5.52735,19.81414,19.81414,0,0,1,12.16016-8.92871,5.41848,5.41848,0,0,0,4.5918,8.333Zm0-23.38477v12.415H481.23242a3.19246,3.19246,0,0,0-.93554.085,21.33282,21.33282,0,0,0-16.24219,8.92969,16.70957,16.70957,0,0,1-.33985-3.4873,17.8734,17.8734,0,0,1,17.85743-17.94239Zm0,46.68555v12.5H481.4873a17.84626,17.84626,0,0,1-16.752-11.56445,19.52277,19.52277,0,0,1,11.90527-8.92871,4.917,4.917,0,0,0-.5957,2.55078,5.37254,5.37254,0,0,0,5.44238,5.44238Z" transform="translate(-60.9102 -116.16695)"/><path class="cls-3" d="M564.99414,286.36621a29.76387,29.76387,0,1,1-21.08984-50.76758,31.14462,31.14462,0,0,1,6.37793.68067,30.16238,30.16238,0,0,0-23.72559,29.42285A17.407,17.407,0,0,0,543.9043,282.709a17.1689,17.1689,0,0,0,12.24511-5.1875Zm0-42.00879-8.84473,8.84375c0-.085-.085-.085-.085-.16992a17.24563,17.24563,0,0,0-24.49023.16992A28.2033,28.2033,0,0,1,554.959,237.72461,31.25187,31.25187,0,0,1,564.99414,244.35742Z" transform="translate(-60.9102 -116.16695)"/></svg>